<svg width="63" height="63" viewBox="0 0 63 63" fill="none" xmlns="http://www.w3.org/2000/svg">
<path d="M34.625 37.75H40.875V28.375H50.25V22.125H40.875V12.75H34.625V22.125H25.25V28.375H34.625V37.75ZM19 50.25C17.2812 50.25 15.8104 49.6385 14.5875 48.4156C13.3625 47.1906 12.75 45.7188 12.75 44V6.5C12.75 4.78125 13.3625 3.30937 14.5875 2.08437C15.8104 0.861458 17.2812 0.25 19 0.25H56.5C58.2188 0.25 59.6906 0.861458 60.9156 2.08437C62.1385 3.30937 62.75 4.78125 62.75 6.5V44C62.75 45.7188 62.1385 47.1906 60.9156 48.4156C59.6906 49.6385 58.2188 50.25 56.5 50.25H19ZM6.5 62.75C4.78125 62.75 3.31042 62.1385 2.0875 60.9156C0.8625 59.6906 0.25 58.2188 0.25 56.5V12.75H6.5V56.5H50.25V62.75H6.5Z" fill="#4C4CFF"/>
</svg>
